# xmcd
#
# Track frame offsets: 
#        150
#        13881
#        26811
#        50316
#
# Disc length: 1170 seconds
#
# Revision: 0
# Processed by: cddbd v1.5.2PL0 Copyright (c) Steve Scherf et al.
# Submitted via: ExactAudioCopy v0.95a5
#
DISCID=2c049004
DTITLE=The Vines - Outtathaway [CD2)
DYEAR=2002
DGENRE=Heavenly
TTITLE0=Outtathaway (radio edit)
TTITLE1=Don't Go
TTITLE2=Get Free (live at Reading Festival)
TTITLE3=DATA
EXTD=
EXTT0=
EXTT1=
EXTT2=
EXTT3=
PLAYORDER=
